<?xml version="1.0" encoding="UTF-8" standalone="no"?>
<svg
   xmlns:dc="http://purl.org/dc/elements/1.1/"
   xmlns:cc="http://creativecommons.org/ns#"
   xmlns:rdf="http://www.w3.org/1999/02/22-rdf-syntax-ns#"
   xmlns:svg="http://www.w3.org/2000/svg"
   xmlns="http://www.w3.org/2000/svg"
   xmlns:sodipodi="http://sodipodi.sourceforge.net/DTD/sodipodi-0.dtd"
   xmlns:inkscape="http://www.inkscape.org/namespaces/inkscape"
   width="24"
   height="24"
   viewBox="0 0 24 24"
   fill="none"
   stroke="#ada1f7"
   stroke-width="2"
   stroke-linecap="round"
   stroke-linejoin="round"
   class="feather feather-search"
   version="1.1"
   id="svg26"
   sodipodi:docname="gitsearch_v1.svg"
   inkscape:version="1.0.2-2 (e86c870879, 2021-01-15)">
  <metadata
     id="metadata32">
    <rdf:RDF>
      <cc:Work
         rdf:about="">
        <dc:format>image/svg+xml</dc:format>
        <dc:type
           rdf:resource="http://purl.org/dc/dcmitype/StillImage" />
        <dc:title></dc:title>
      </cc:Work>
    </rdf:RDF>
  </metadata>
  <defs
     id="defs30" />
  <sodipodi:namedview
     pagecolor="#ffffff"
     bordercolor="#666666"
     borderopacity="1"
     objecttolerance="10"
     gridtolerance="10"
     guidetolerance="10"
     inkscape:pageopacity="0"
     inkscape:pageshadow="2"
     inkscape:window-width="1920"
     inkscape:window-height="1017"
     id="namedview28"
     showgrid="false"
     inkscape:zoom="25.043365"
     inkscape:cx="3.8104294"
     inkscape:cy="13.075981"
     inkscape:window-x="-8"
     inkscape:window-y="-8"
     inkscape:window-maximized="1"
     inkscape:current-layer="svg26" />
  <circle
     cx="11"
     cy="11"
     r="8"
     id="circle22"
     style="stroke-width:2;stroke-miterlimit:4;stroke-dasharray:none" />
  <line
     x1="21"
     y1="21"
     x2="16.65"
     y2="16.65"
     id="line24" />
  <g
     style="fill:none;stroke:#5a43ef;stroke-width:1.76925971;stroke-linecap:round;stroke-linejoin:round;stroke-miterlimit:4;stroke-dasharray:none;fill-opacity:1"
     id="g55"
     transform="matrix(0.43294944,0,0,0.43294944,5.6678211,6.2274508)">
    <path
       d="M 9,19 C 4,20.5 4,16.5 2,16 m 14,6 v -3.87 a 3.37,3.37 0 0 0 -0.94,-2.61 c 3.14,-0.35 6.44,-1.54 6.44,-7 A 5.44,5.44 0 0 0 20,4.77 5.07,5.07 0 0 0 19.91,1 c 0,0 -1.18,-0.35 -3.91,1.48 a 13.38,13.38 0 0 0 -7,0 C 6.27,0.65 5.09,1 5.09,1 A 5.07,5.07 0 0 0 5,4.77 5.44,5.44 0 0 0 3.5,8.55 c 0,5.42 3.3,6.61 6.44,7 A 3.37,3.37 0 0 0 9,18.13 V 22"
       id="path44"
       style="stroke-width:1.76925971;stroke-miterlimit:4;stroke-dasharray:none;fill:none;fill-opacity:1" />
  </g>
</svg>
